<svg width="48" height="48" viewBox="0 0 48 48" fill="none" xmlns="http://www.w3.org/2000/svg">
<g id="devicon:google" clip-path="url(#clip0_13_3802)">
<path id="Vector" d="M16.7182 1.57887C11.9222 3.24262 7.78622 6.40049 4.91764 10.5886C2.04907 14.7768 0.599145 19.7744 0.780836 24.8475C0.962527 29.9206 2.76626 34.8017 5.92709 38.7739C9.08792 42.7461 13.4392 45.6 18.3419 46.9164C22.3166 47.942 26.481 47.987 30.4769 47.0476C34.0969 46.2345 37.4436 44.4952 40.1894 42.0001C43.0472 39.3239 45.1216 35.9194 46.1894 32.1526C47.3497 28.0563 47.5563 23.7486 46.7932 19.5601H24.4732V28.8189H37.3994C37.1411 30.2956 36.5875 31.705 35.7717 32.9627C34.956 34.2205 33.8949 35.3008 32.6519 36.1389C31.0737 37.1834 29.2943 37.8859 27.4282 38.2014C25.5567 38.5494 23.6371 38.5494 21.7657 38.2014C19.8688 37.8096 18.0743 37.0267 16.4969 35.9026C13.9625 34.1086 12.0595 31.5598 11.0594 28.6201C10.0428 25.6253 10.0428 22.3787 11.0594 19.3839C11.7713 17.2847 12.9481 15.3734 14.5019 13.7926C16.2801 11.9504 18.5314 10.6336 21.0088 9.98665C23.4861 9.3397 26.0938 9.3876 28.5457 10.1251C30.4612 10.7128 32.2128 11.7402 33.6607 13.1251C35.1182 11.6751 36.5732 10.2214 38.0257 8.76387C38.7757 7.98012 39.5932 7.23386 40.3319 6.43137C38.1214 4.37456 35.5269 2.77401 32.6969 1.72137C27.5433 -0.149923 21.9043 -0.200212 16.7182 1.57887Z" fill="white"/>
<path id="Vector_2" d="M16.7175 1.57873C21.9032 -0.201552 27.5422 -0.152587 32.6962 1.71748C35.5267 2.77728 38.1201 4.38553 40.3275 6.44998C39.5775 7.25248 38.7863 8.00248 38.0212 8.78248C36.5662 10.235 35.1125 11.6825 33.66 13.125C32.2121 11.74 30.4605 10.7127 28.545 10.125C26.0939 9.38489 23.4863 9.33421 21.0083 9.97852C18.5303 10.6228 16.2777 11.9372 14.4975 13.7775C12.9436 15.3582 11.7668 17.2695 11.055 19.3687L3.28125 13.35C6.06378 7.83209 10.8816 3.61132 16.7175 1.57873Z" fill="#E33629"/>
<path id="Vector_3" d="M1.2228 19.3126C1.64033 17.2417 2.33402 15.2363 3.2853 13.3501L11.0591 19.3838C10.0424 22.3787 10.0424 25.6253 11.0591 28.6201C8.46905 30.6201 5.8778 32.6301 3.2853 34.6501C0.904617 29.9113 0.178549 24.512 1.2228 19.3126Z" fill="#F8BD00"/>
<path id="Vector_4" d="M24.7517 19.5H47.0717C47.8348 23.6885 47.6282 27.9962 46.4679 32.0925C45.4001 35.8593 43.3257 39.2638 40.4679 41.94C37.9592 39.9825 35.4392 38.04 32.9304 36.0825C34.1742 35.2435 35.2358 34.1621 36.0516 32.903C36.8674 31.6439 37.4205 30.233 37.6779 28.755H24.7517C24.7479 25.6725 24.7517 22.5862 24.7517 19.5Z" fill="#587DBD"/>
<path id="Vector_5" d="M3.28125 34.6501C5.87375 32.6501 8.465 30.6401 11.055 28.6201C12.057 31.5609 13.9628 34.1097 16.5 35.9026C18.0823 37.0215 19.8806 37.798 21.78 38.1826C23.6515 38.5307 25.571 38.5307 27.4425 38.1826C29.3086 37.8672 31.088 37.1646 32.6663 36.1201C35.175 38.0776 37.695 40.0201 40.2038 41.9776C37.4583 44.4741 34.1116 46.2147 30.4912 47.0289C26.4953 47.9683 22.331 47.9232 18.3563 46.8976C15.2126 46.0583 12.2763 44.5786 9.73125 42.5514C7.03773 40.4124 4.83763 37.7173 3.28125 34.6501Z" fill="#319F43"/>
</g>
<defs>
<clipPath id="clip0_13_3802">
<rect width="48" height="48" fill="white"/>
</clipPath>
</defs>
</svg>
