<svg width="24" height="24" viewBox="0 0 24 24" fill="none" xmlns="http://www.w3.org/2000/svg">
<g id="ic:round-star">
<path id="Vector" d="M12.0028 16.686L12.261 16.8422L16.411 19.3522L16.4112 19.3523C16.7908 19.582 17.2556 19.2445 17.1553 18.8133L16.0553 14.0935L15.9868 13.7997L16.2148 13.6021L19.8848 10.4221L19.885 10.422C20.2218 10.1305 20.0375 9.58303 19.6026 9.54844L19.6 9.54823L14.77 9.13822L14.4695 9.11272L14.3519 8.8351L12.4619 4.3751L12.4612 4.37353C12.2928 3.97217 11.7118 3.97217 11.5433 4.37353L11.5425 4.37547L9.65248 8.82547L9.53472 9.10274L9.23456 9.12822L4.40456 9.53822L4.40192 9.53844L4.40192 9.53844C3.96701 9.57303 3.78279 10.1205 4.11952 10.412L4.1197 10.4121L7.7897 13.5921L8.01769 13.7897L7.94922 14.0835L6.84927 18.8033L12.0028 16.686ZM12.0028 16.686L11.7443 16.8417M12.0028 16.686L11.7443 16.8417M11.7443 16.8417L7.59426 19.3417L7.59337 19.3423M11.7443 16.8417L7.59337 19.3423M7.59337 19.3423C7.21382 19.572 6.74915 19.2346 6.84922 18.8035L7.59337 19.3423Z" stroke="#FFBB0D"/>
<path id="Rectangle 17" d="M9.5 9.5L12 4.5V16.5L7 19.5L8.25 14.5L4.5 10L9.5 9.5Z" fill="#FFBB0D"/>
</g>
</svg>
