<svg xmlns="http://www.w3.org/2000/svg" width="25" height="24" viewBox="0 0 25 24" fill="none">
  <g clip-path="url(#clip0_8_1104)">
    <mask id="mask0_8_1104" style="mask-type:luminance" maskUnits="userSpaceOnUse" x="0" y="0" width="25" height="24">
      <path d="M24.1025 0H0.102539V24H24.1025V0Z" fill="white"/>
    </mask>
    <g mask="url(#mask0_8_1104)">
      <path d="M23.6699 8.3204L12.4199 3.0704C12.3205 3.02403 12.2122 3 12.1026 3C11.993 3 11.8847 3.02403 11.7854 3.0704L0.535325 8.3204C0.406063 8.3808 0.296708 8.4768 0.220093 8.59716C0.143478 8.71752 0.102783 8.85723 0.102783 8.9999C0.102783 9.14258 0.143478 9.28229 0.220093 9.40265C0.296708 9.52301 0.406063 9.61901 0.535325 9.6794L4.60258 11.5777V17.2499C4.60258 19.3882 7.82758 20.9999 12.1026 20.9999C16.3776 20.9999 19.6026 19.3882 19.6026 17.2499V11.5777L21.1026 10.8772V14.9999C21.1026 15.1988 21.1816 15.3896 21.3223 15.5303C21.4629 15.6709 21.6537 15.7499 21.8526 15.7499C22.0515 15.7499 22.2423 15.6709 22.3829 15.5303C22.5236 15.3896 22.6026 15.1988 22.6026 14.9999V10.1774L23.6699 9.6794C23.7991 9.61901 23.9085 9.52301 23.9851 9.40265C24.0617 9.28229 24.1024 9.14258 24.1024 8.9999C24.1024 8.85723 24.0617 8.71752 23.9851 8.59716C23.9085 8.4768 23.7991 8.3808 23.6699 8.3204ZM18.1026 17.2499C18.1026 18.1679 15.7656 19.4999 12.1026 19.4999C8.43957 19.4999 6.10258 18.1679 6.10258 17.2499V12.2774L11.7854 14.9294C11.8847 14.9758 11.993 14.9998 12.1026 14.9998C12.2122 14.9998 12.3205 14.9758 12.4199 14.9294L16.1699 13.1789C16.347 13.0929 16.4832 12.9406 16.549 12.7551C16.6149 12.5695 16.6051 12.3654 16.5218 12.187C16.4385 12.0086 16.2883 11.8701 16.1038 11.8014C15.9192 11.7327 15.715 11.7394 15.5354 11.8199L12.1026 13.4249L2.62558 8.9999L12.1026 4.5749L21.5789 8.9999L18.5354 10.4204C18.3942 10.4872 18.2777 10.5968 18.2025 10.7336C18.1272 10.8704 18.097 11.0275 18.1161 11.1824C18.1105 11.2047 18.106 11.2272 18.1026 11.2499V17.2499Z" fill="white"/>
    </g>
  </g>
  <defs>
    <clipPath id="clip0_8_1104">
      <rect width="24" height="24" fill="white" transform="translate(0.102539)"/>
    </clipPath>
  </defs>
</svg>