<svg xmlns="http://www.w3.org/2000/svg" width="25" height="24" viewBox="0 0 25 24" fill="none">
  <g clip-path="url(#clip0_8_1111)">
    <path d="M15.8994 0H8.30566C3.78246 0 0.102539 3.67992 0.102539 8.20312V15.7969C0.102539 20.32 3.78246 24 8.30566 24H15.8994C20.4226 24 24.1025 20.32 24.1025 15.7969V8.20312C24.1025 3.67992 20.4226 0 15.8994 0ZM22.6962 15.7969C22.6962 19.5446 19.6472 22.5937 15.8994 22.5937H8.30566C4.55787 22.5937 1.50879 19.5446 1.50879 15.7969V8.20312C1.50879 4.45533 4.55787 1.40625 8.30566 1.40625H15.8994C19.6472 1.40625 22.6962 4.45533 22.6962 8.20312V15.7969Z" fill="white"/>
    <path d="M16.2482 10.6357L10.4358 6.75229C9.34662 6.0246 7.88379 6.80713 7.88379 8.11645V15.8832C7.88379 17.1999 9.35548 17.9691 10.4359 17.2474L16.2483 13.364C17.2186 12.7157 17.2214 11.2859 16.2482 10.6357ZM15.467 12.1947L9.65464 16.0781C9.49911 16.182 9.29005 16.0724 9.29005 15.8833V8.11645C9.29005 7.92974 9.49713 7.81631 9.65464 7.92154L15.4671 11.8049C15.6062 11.898 15.6064 12.1016 15.467 12.1947Z" fill="white"/>
  </g>
  <defs>
    <clipPath id="clip0_8_1111">
      <rect width="24" height="24" fill="white" transform="translate(0.102539)"/>
    </clipPath>
  </defs>
</svg>