<svg xmlns="http://www.w3.org/2000/svg" width="25" height="24" viewBox="0 0 25 24" fill="none">
  <path d="M20.3251 12.6562H19.7867C19.4721 10.467 17.7116 8.73858 15.507 8.47317C16.4417 7.57678 17.0246 6.31612 17.0246 4.92188C17.0246 2.20795 14.8166 0 12.1027 0C9.38876 0 7.1808 2.20795 7.1808 4.92188C7.1808 6.31617 7.76369 7.57678 8.69843 8.47317C6.49385 8.73858 4.73332 10.467 4.41874 12.6562H3.88033C2.59563 12.6562 1.61102 13.7959 1.79201 15.0629L2.96894 23.3952C3.01793 23.7421 3.31483 24 3.66518 24H20.5402C20.8906 24 21.1875 23.7421 21.2365 23.3952L22.4133 15.0639C22.5948 13.7932 21.6074 12.6562 20.3251 12.6562ZM8.58705 4.92188C8.58705 2.98336 10.1642 1.40625 12.1027 1.40625C14.0412 1.40625 15.6183 2.98336 15.6183 4.92188C15.6183 6.86039 14.0412 8.4375 12.1027 8.4375C10.1642 8.4375 8.58705 6.86039 8.58705 4.92188ZM9.29018 9.84375H14.9152C16.613 9.84375 18.0335 11.0535 18.3602 12.6562H5.84519C6.17187 11.0535 7.59241 9.84375 9.29018 9.84375ZM21.021 14.8662L19.9294 22.5938H4.27596L3.18429 14.865C3.12363 14.441 3.45119 14.0625 3.88033 14.0625C4.07468 14.0625 20.2437 14.0625 20.3251 14.0625C20.7537 14.0625 21.0819 14.44 21.021 14.8662Z" fill="white"/>
  <path d="M12.1026 16.9219C10.9395 16.9219 9.99316 17.8681 9.99316 19.0312C9.99316 20.1944 10.9395 21.1406 12.1026 21.1406C13.2657 21.1406 14.2119 20.1944 14.2119 19.0312C14.2119 17.8681 13.2657 16.9219 12.1026 16.9219ZM12.1026 19.7344C11.7149 19.7344 11.3994 19.419 11.3994 19.0312C11.3994 18.6435 11.7149 18.3281 12.1026 18.3281C12.4903 18.3281 12.8057 18.6435 12.8057 19.0312C12.8057 19.419 12.4903 19.7344 12.1026 19.7344Z" fill="white"/>
</svg>
