<svg width="33" height="33" viewBox="0 0 33 33" fill="none" xmlns="http://www.w3.org/2000/svg">
<g id="Socials">
<path id="bg" d="M0.5 2.79228C0.5 1.52663 1.5587 0.5 2.86474 0.5H30.1353C31.4412 0.5 32.5 1.52663 32.5 2.79228V30.2077C32.5 31.4738 31.4412 32.5 30.1353 32.5H2.86474C1.5587 32.5 0.5 31.4738 0.5 30.2077V2.79228Z" fill="#006699"/>
<g id="in">
<path fill-rule="evenodd" clip-rule="evenodd" d="M10.6023 27.2874V12.8376H5.79942V27.2874H10.6023ZM8.20082 10.8647C9.87567 10.8647 10.9181 9.75515 10.9181 8.36849C10.8869 6.95062 9.87567 5.87183 8.23259 5.87183C6.58968 5.87183 5.5155 6.95062 5.5155 8.36849C5.5155 9.75515 6.55773 10.8647 8.16951 10.8647H8.20082Z" fill="white"/>
<path fill-rule="evenodd" clip-rule="evenodd" d="M13.2598 27.2874H18.0626V19.218C18.0626 18.7862 18.0938 18.3547 18.2207 18.046C18.5679 17.1831 19.3581 16.2895 20.6849 16.2895C22.4228 16.2895 23.118 17.6146 23.118 19.5571V27.2874H27.9205V19.0021C27.9205 14.5638 25.551 12.4985 22.3911 12.4985C19.8001 12.4985 18.6626 13.9468 18.0307 14.9332H18.0628V12.8376H13.26C13.323 14.1935 13.2598 27.2874 13.2598 27.2874Z" fill="white"/>
</g>
</g>
</svg>
