<svg width="51" height="50" viewBox="0 0 51 50" fill="none" xmlns="http://www.w3.org/2000/svg">
<path d="M25.9156 18.7858C24.6903 18.7858 23.4925 19.1491 22.4737 19.8299C21.4549 20.5106 20.6608 21.4782 20.1919 22.6102C19.723 23.7423 19.6003 24.988 19.8394 26.1897C20.0784 27.3915 20.6685 28.4954 21.5349 29.3618C22.4013 30.2283 23.5052 30.8183 24.707 31.0573C25.9088 31.2964 27.1544 31.1737 28.2865 30.7048C29.4185 30.2359 30.3861 29.4418 31.0669 28.423C31.7476 27.4042 32.111 26.2064 32.111 24.9811C32.111 24.1675 31.9507 23.3619 31.6394 22.6102C31.328 21.8586 30.8717 21.1756 30.2964 20.6003C29.7211 20.025 29.0381 19.5687 28.2865 19.2574C27.5348 18.946 26.7292 18.7858 25.9156 18.7858ZM50.7219 12.6654C50.7087 10.7363 50.3535 8.82474 49.6727 7.01968C49.1712 5.69883 48.3954 4.49933 47.3964 3.50031C46.3974 2.5013 45.1979 1.72549 43.877 1.22407C42.072 0.543248 40.1605 0.18801 38.2313 0.174867C35.0088 -1.67511e-07 34.0595 0 25.9156 0C17.7718 0 16.8225 -1.67511e-07 13.6 0.174867C11.6708 0.18801 9.75931 0.543248 7.95425 1.22407C6.6334 1.72549 5.4339 2.5013 4.43488 3.50031C3.43587 4.49933 2.66006 5.69883 2.15864 7.01968C1.47782 8.82474 1.12258 10.7363 1.10944 12.6654C0.93457 15.888 0.93457 16.8372 0.93457 24.9811C0.93457 33.1249 0.93457 34.0742 1.10944 37.2968C1.13633 39.2327 1.49108 41.1501 2.15864 42.9675C2.65784 44.2823 3.433 45.4748 4.43192 46.4648C5.42665 47.4698 6.62873 48.2456 7.95425 48.7381C9.75931 49.4189 11.6708 49.7742 13.6 49.7873C16.8225 49.9622 17.7718 49.9622 25.9156 49.9622C34.0595 49.9622 35.0088 49.9622 38.2313 49.7873C40.1605 49.7742 42.072 49.4189 43.877 48.7381C45.2026 48.2456 46.4046 47.4698 47.3994 46.4648C48.3983 45.4748 49.1735 44.2823 49.6727 42.9675C50.3528 41.1535 50.708 39.2339 50.7219 37.2968C50.8967 34.0742 50.8967 33.1249 50.8967 24.9811C50.8967 16.8372 50.8967 15.888 50.7219 12.6654ZM44.3767 32.6503C44.2965 34.1919 43.9675 35.7103 43.4024 37.1469C42.9174 38.3452 42.1965 39.4337 41.2824 40.3478C40.3683 41.2619 39.2797 41.9829 38.0814 42.4678C36.6313 43.0014 35.1044 43.2967 33.5599 43.3422H18.2714C16.7269 43.2967 15.2 43.0014 13.7499 42.4678C12.5111 42.0075 11.3923 41.2731 10.4773 40.3195C9.57219 39.4233 8.87317 38.3406 8.42889 37.1469C7.89319 35.6983 7.60603 34.1696 7.57954 32.6253V17.3369C7.60603 15.7926 7.89319 14.2639 8.42889 12.8153C8.88925 11.5765 9.62368 10.4578 10.5773 9.54277C11.4774 8.64251 12.5589 7.94422 13.7499 7.49432C15.2 6.96074 16.7269 6.66548 18.2714 6.61999H33.5599C35.1044 6.66548 36.6313 6.96074 38.0814 7.49432C39.3202 7.95468 40.439 8.68911 41.354 9.6427C42.2591 10.5389 42.9581 11.6215 43.4024 12.8153C43.936 14.2654 44.2313 15.7924 44.2767 17.3369V24.9811C44.2767 30.1272 44.4516 30.6518 44.3767 32.6253V32.6503ZM40.3797 14.0643C40.0823 13.2574 39.6133 12.5246 39.0052 11.9165C38.3971 11.3084 37.6643 10.8394 36.8574 10.542C35.7494 10.158 34.5824 9.97192 33.41 9.99243H18.4213C17.2429 10.004 16.0758 10.2238 14.9739 10.6419C14.1794 10.9259 13.4543 11.3757 12.847 11.9614C12.2397 12.5472 11.764 13.2556 11.4516 14.0394C11.0888 15.1519 10.9116 16.3166 10.927 17.4868V32.4754C10.9518 33.6525 11.1712 34.8174 11.5765 35.9228C11.8739 36.7297 12.3429 37.4625 12.951 38.0706C13.5591 38.6787 14.2919 39.1477 15.0988 39.4451C16.1647 39.8371 17.2863 40.0564 18.4213 40.0946H33.41C34.5884 40.0831 35.7555 39.8632 36.8574 39.4451C37.6643 39.1477 38.3971 38.6787 39.0052 38.0706C39.6133 37.4625 40.0823 36.7297 40.3797 35.9228C40.7978 34.821 41.0177 33.6538 41.0292 32.4754V17.4868C41.0299 16.3071 40.8096 15.1378 40.3797 14.0394V14.0643ZM25.9156 34.5238C24.6637 34.5239 23.424 34.2768 22.2676 33.797C21.1112 33.3171 20.0608 32.6138 19.1767 31.7273C18.2926 30.8409 17.592 29.7887 17.1152 28.6311C16.6383 27.4734 16.3946 26.2331 16.3979 24.9811C16.3979 23.0926 16.9582 21.2466 18.0079 19.6768C19.0575 18.107 20.5494 16.8839 22.2946 16.1623C24.0397 15.4408 25.9597 15.2533 27.8115 15.6235C29.6633 15.9938 31.3636 16.9051 32.6972 18.2422C34.0308 19.5793 34.9377 21.282 35.3031 23.1347C35.6685 24.9875 35.4759 26.907 34.7498 28.6503C34.0237 30.3936 32.7967 31.8822 31.2241 32.9278C29.6515 33.9733 27.8041 34.5288 25.9156 34.5238ZM35.9081 17.3119C35.3559 17.2534 34.8448 16.9927 34.4734 16.5799C34.102 16.1671 33.8964 15.6314 33.8964 15.0761C33.8964 14.5208 34.102 13.9851 34.4734 13.5723C34.8448 13.1595 35.3559 12.8987 35.9081 12.8403C36.4603 12.8987 36.9714 13.1595 37.3428 13.5723C37.7142 13.9851 37.9197 14.5208 37.9197 15.0761C37.9197 15.6314 37.7142 16.1671 37.3428 16.5799C36.9714 16.9927 36.4603 17.2534 35.9081 17.3119Z" fill="#171717"/>
</svg>
