<svg width="50" height="50" viewBox="0 0 50 50" fill="none" xmlns="http://www.w3.org/2000/svg">
<path d="M2.77915 0H47.2142C48.7443 0 49.9622 1.21783 49.9622 2.74792V47.2142C49.9622 48.7131 48.7443 49.9622 47.2142 49.9622H34.4739V30.6018H40.969L41.937 23.0763H34.4739V18.2674C34.4739 16.0816 35.0984 14.5827 38.2211 14.5827H42.218V7.83781C41.531 7.74413 39.1578 7.55678 36.4099 7.55678C30.633 7.55678 26.6985 11.0541 26.6985 17.518V23.0763H20.1722V30.6018H26.6985V49.9622H2.77915C2.04745 49.9622 1.34525 49.6737 0.824951 49.1592C0.304649 48.6448 0.00822131 47.9459 0 47.2142V2.74792C0 1.21783 1.24905 0 2.77915 0Z" fill="#171717"/>
</svg>
