<svg width="55" height="55" viewBox="0 0 55 55" fill="none" xmlns="http://www.w3.org/2000/svg">
<path d="M55 27.5C55 42.6878 42.6878 55 27.5 55C12.3122 55 0 42.6878 0 27.5C0 12.3122 12.3122 0 27.5 0C42.6878 0 55 12.3122 55 27.5Z" fill="#D25611"/>
<path d="M27.625 15.4375C29.1615 15.4375 30.4245 15.6589 31.4141 16.1016C32.4297 16.5443 33.3151 17.013 34.0703 17.5078V21.1406C33.3411 20.5938 32.4557 20.0859 31.4141 19.6172C30.3724 19.1224 29.2396 18.875 28.0156 18.875C27.2344 18.875 26.4141 19.0182 25.5547 19.3047C24.7214 19.5651 24.0182 19.9948 23.4453 20.5938C22.8724 21.1927 22.5859 21.9609 22.5859 22.8984C22.5859 23.9401 22.9635 24.7344 23.7188 25.2812C24.474 25.8281 25.3854 26.349 26.4531 26.8438L30.0469 28.4844C31.8438 29.2917 33.1979 30.1901 34.1094 31.1797C35.0208 32.1693 35.4766 33.4844 35.4766 35.125C35.4766 36.5573 35.0599 37.8203 34.2266 38.9141C33.3932 39.9818 32.2995 40.8281 30.9453 41.4531C29.5911 42.0781 28.1068 42.3906 26.4922 42.3906C24.9818 42.3906 23.5885 42.1302 22.3125 41.6094C21.0365 41.0885 19.9297 40.5026 18.9922 39.8516V36.2188C20.0078 36.9219 21.1667 37.5599 22.4688 38.1328C23.7969 38.6797 25.2943 38.9531 26.9609 38.9531C28.263 38.9531 29.4089 38.6276 30.3984 37.9766C31.388 37.3255 31.8828 36.4271 31.8828 35.2812C31.8828 34.6302 31.6745 34.0703 31.2578 33.6016C30.8672 33.1328 30.3854 32.7292 29.8125 32.3906C29.2396 32.0521 28.6797 31.7656 28.1328 31.5312L23.7969 29.5781C21.9219 28.7448 20.6458 27.7682 19.9688 26.6484C19.2917 25.5286 18.9531 24.2396 18.9531 22.7812C18.9531 21.401 19.3438 20.1641 20.125 19.0703C20.9323 17.9505 22 17.0651 23.3281 16.4141C24.6562 15.763 26.0885 15.4375 27.625 15.4375Z" fill="white"/>
</svg>
